<svg width="34" height="19" viewBox="0 0 34 19" fill="none" xmlns="http://www.w3.org/2000/svg">
<path d="M17.7449 18.5326L33.0112 2.51023C33.266 2.24289 33.4082 1.88771 33.4082 1.51835C33.4082 1.149 33.266 0.793823 33.0112 0.526482L32.9939 0.50923C32.8704 0.379179 32.7217 0.275623 32.5568 0.204859C32.392 0.134094 32.2145 0.0976008 32.0351 0.0976008C31.8557 0.0976008 31.6782 0.134094 31.5134 0.204859C31.3486 0.275623 31.1999 0.379179 31.0763 0.509229L16.7013 15.5972L2.33205 0.509227C2.20851 0.379176 2.05979 0.275621 1.89496 0.204856C1.73013 0.134091 1.55262 0.0975982 1.37324 0.0975981C1.19386 0.0975981 1.01635 0.134091 0.851522 0.204856C0.68669 0.27562 0.537975 0.379176 0.414427 0.509227L0.397176 0.526479C0.142323 0.79382 0.000150332 1.149 0.0001503 1.51835C0.000150267 1.8877 0.142323 2.24289 0.397176 2.51023L15.6634 18.5326C15.7977 18.6735 15.9592 18.7857 16.1381 18.8623C16.3169 18.939 16.5096 18.9785 16.7042 18.9785C16.8988 18.9785 17.0914 18.939 17.2703 18.8623C17.4492 18.7857 17.6107 18.6735 17.7449 18.5326Z" fill="white"/>
</svg>
